<?xml version="1.0" standalone="no"?>
<!DOCTYPE svg PUBLIC "-//W3C//DTD SVG 20010904//EN"
 "http://www.w3.org/TR/2001/REC-SVG-20010904/DTD/svg10.dtd">
<svg version="1.0" xmlns="http://www.w3.org/2000/svg"
 width="300.000000pt" height="300.000000pt" viewBox="0 0 300.000000 300.000000"
 preserveAspectRatio="xMidYMid meet">

<g transform="translate(0.000000,300.000000) scale(0.100000,-0.100000)"
fill="#000000" stroke="none">
<path d="M1315 2656 c-524 -78 -948 -467 -1091 -1001 -35 -134 -44 -360 -20
-512 41 -256 161 -495 356 -706 64 -69 99 -88 125 -67 25 21 18 37 -41 97
-178 182 -280 355 -342 581 -24 90 -26 113 -27 302 0 185 2 214 24 295 94 357
325 650 641 813 707 366 1576 -32 1782 -816 20 -77 22 -110 22 -297 0 -197 -2
-216 -27 -310 -55 -199 -170 -397 -328 -561 -71 -74 -75 -80 -60 -103 17 -26
58 -2 139 84 317 335 435 786 320 1230 -90 348 -346 670 -666 838 -101 52
-268 111 -362 127 -105 17 -344 21 -445 6z"/>
<path d="M1045 2170 c-39 -15 -46 -37 -53 -146 l-7 -106 -46 -2 c-54 -2 -92
-24 -119 -69 -17 -28 -20 -51 -20 -167 l0 -135 -59 -12 c-117 -22 -144 -63
-149 -228 -10 -292 60 -534 207 -717 68 -84 112 -123 224 -196 262 -171 607
-188 895 -43 250 126 433 365 489 640 10 50 16 137 17 256 1 159 -1 185 -18
219 -23 46 -79 75 -143 76 l-43 0 0 135 c0 194 -20 230 -134 242 l-56 6 0 81
c0 105 -14 154 -46 166 -31 12 -910 12 -939 0z m903 -162 l-3 -93 -423 -2
c-232 -1 -429 0 -437 3 -12 5 -15 25 -15 95 l0 89 440 0 441 0 -3 -92z m174
-185 c16 -14 18 -33 18 -150 l0 -133 -630 0 -630 0 0 138 c0 94 4 142 12 150
9 9 159 12 612 12 544 0 601 -2 618 -17z m194 -387 c26 -22 28 -29 28 -102 l1
-79 -835 0 -835 0 -3 78 c-3 71 -1 79 22 102 l25 25 785 0 785 0 27 -24z m20
-340 c-22 -245 -158 -476 -362 -617 -180 -123 -423 -175 -621 -130 -175 38
-315 113 -433 231 -145 146 -217 305 -244 543 l-6 47 837 0 836 0 -7 -74z"/>
<path d="M2043 1092 c-7 -5 -22 -43 -33 -86 -31 -121 -82 -209 -174 -301 -129
-128 -283 -197 -477 -211 -96 -7 -115 -18 -105 -59 6 -24 9 -25 89 -25 331 1
627 211 734 519 37 108 40 133 17 155 -17 18 -32 20 -51 8z"/>
</g>
</svg>
